<?xml version="1.0" encoding="UTF-8" standalone="no"?>
<!-- Created with Inkscape (http://www.inkscape.org/) -->

<svg
   version="1.1"
   id="svg2"
   width="4000"
   height="4000"
   viewBox="0 0 4000 4000"
   sodipodi:docname="Root_File.ai"
   xmlns:inkscape="http://www.inkscape.org/namespaces/inkscape"
   xmlns:sodipodi="http://sodipodi.sourceforge.net/DTD/sodipodi-0.dtd"
   xmlns="http://www.w3.org/2000/svg"
   xmlns:svg="http://www.w3.org/2000/svg">
  <defs
     id="defs6">
    <linearGradient
       x1="0"
       y1="0"
       x2="1"
       y2="0"
       gradientUnits="userSpaceOnUse"
       gradientTransform="matrix(123.05837,0,0,-123.05837,752.46704,1437.3932)"
       spreadMethod="pad"
       id="linearGradient40">
      <stop
         style="stop-opacity:1;stop-color:#68a0b0"
         offset="0"
         id="stop30" />
      <stop
         style="stop-opacity:1;stop-color:#68a0b0"
         offset="0.29385354"
         id="stop32" />
      <stop
         style="stop-opacity:1;stop-color:#000000"
         offset="0.5"
         id="stop34" />
      <stop
         style="stop-opacity:1;stop-color:#68a0b0"
         offset="0.78366702"
         id="stop36" />
      <stop
         style="stop-opacity:1;stop-color:#68a0b0"
         offset="1"
         id="stop38" />
    </linearGradient>
    <linearGradient
       x1="0"
       y1="0"
       x2="1"
       y2="0"
       gradientUnits="userSpaceOnUse"
       gradientTransform="matrix(236.65747,0,0,-236.65747,695.04297,1466.7639)"
       spreadMethod="pad"
       id="linearGradient66">
      <stop
         style="stop-opacity:1;stop-color:#68a0b0"
         offset="0"
         id="stop56" />
      <stop
         style="stop-opacity:1;stop-color:#68a0b0"
         offset="0.29385354"
         id="stop58" />
      <stop
         style="stop-opacity:1;stop-color:#000000"
         offset="0.5"
         id="stop60" />
      <stop
         style="stop-opacity:1;stop-color:#68a0b0"
         offset="0.78366702"
         id="stop62" />
      <stop
         style="stop-opacity:1;stop-color:#68a0b0"
         offset="1"
         id="stop64" />
    </linearGradient>
    <linearGradient
       x1="0"
       y1="0"
       x2="1"
       y2="0"
       gradientUnits="userSpaceOnUse"
       gradientTransform="matrix(354.69766,0,0,-354.69766,636.70825,1495.8533)"
       spreadMethod="pad"
       id="linearGradient92">
      <stop
         style="stop-opacity:1;stop-color:#68a0b0"
         offset="0"
         id="stop82" />
      <stop
         style="stop-opacity:1;stop-color:#68a0b0"
         offset="0.29385354"
         id="stop84" />
      <stop
         style="stop-opacity:1;stop-color:#000000"
         offset="0.5"
         id="stop86" />
      <stop
         style="stop-opacity:1;stop-color:#68a0b0"
         offset="0.78366702"
         id="stop88" />
      <stop
         style="stop-opacity:1;stop-color:#68a0b0"
         offset="1"
         id="stop90" />
    </linearGradient>
    <linearGradient
       x1="0"
       y1="0"
       x2="1"
       y2="0"
       gradientUnits="userSpaceOnUse"
       gradientTransform="matrix(415.25656,0,0,-415.25656,604.63086,1512.3856)"
       spreadMethod="pad"
       id="linearGradient118">
      <stop
         style="stop-opacity:1;stop-color:#68a0b0"
         offset="0"
         id="stop108" />
      <stop
         style="stop-opacity:1;stop-color:#68a0b0"
         offset="0.29385354"
         id="stop110" />
      <stop
         style="stop-opacity:1;stop-color:#000000"
         offset="0.5"
         id="stop112" />
      <stop
         style="stop-opacity:1;stop-color:#68a0b0"
         offset="0.78366702"
         id="stop114" />
      <stop
         style="stop-opacity:1;stop-color:#68a0b0"
         offset="1"
         id="stop116" />
    </linearGradient>
    <linearGradient
       x1="0"
       y1="0"
       x2="1"
       y2="0"
       gradientUnits="userSpaceOnUse"
       gradientTransform="matrix(296.78784,0,0,-296.78784,664.1189,1482.071)"
       spreadMethod="pad"
       id="linearGradient144">
      <stop
         style="stop-opacity:1;stop-color:#68a0b0"
         offset="0"
         id="stop134" />
      <stop
         style="stop-opacity:1;stop-color:#68a0b0"
         offset="0.29385354"
         id="stop136" />
      <stop
         style="stop-opacity:1;stop-color:#000000"
         offset="0.5"
         id="stop138" />
      <stop
         style="stop-opacity:1;stop-color:#68a0b0"
         offset="0.78366702"
         id="stop140" />
      <stop
         style="stop-opacity:1;stop-color:#68a0b0"
         offset="1"
         id="stop142" />
    </linearGradient>
    <linearGradient
       x1="0"
       y1="0"
       x2="1"
       y2="0"
       gradientUnits="userSpaceOnUse"
       gradientTransform="matrix(177.75099,0,0,-177.75099,723.60687,1452.0555)"
       spreadMethod="pad"
       id="linearGradient170">
      <stop
         style="stop-opacity:1;stop-color:#68a0b0"
         offset="0"
         id="stop160" />
      <stop
         style="stop-opacity:1;stop-color:#68a0b0"
         offset="0.29385354"
         id="stop162" />
      <stop
         style="stop-opacity:1;stop-color:#000000"
         offset="0.5"
         id="stop164" />
      <stop
         style="stop-opacity:1;stop-color:#68a0b0"
         offset="0.78366702"
         id="stop166" />
      <stop
         style="stop-opacity:1;stop-color:#68a0b0"
         offset="1"
         id="stop168" />
    </linearGradient>
  </defs>
  <sodipodi:namedview
     id="namedview4"
     pagecolor="#ffffff"
     bordercolor="#000000"
     borderopacity="0.25"
     inkscape:showpageshadow="2"
     inkscape:pageopacity="0.0"
     inkscape:pagecheckerboard="0"
     inkscape:deskcolor="#d1d1d1" />
  <g
     id="g8"
     inkscape:groupmode="layer"
     inkscape:label="Root_File"
     transform="matrix(1.3333333,0,0,-1.3333333,0,4000)">
    <text
       xml:space="preserve"
       transform="matrix(1,0,0,-0.99325588,1050.1621,1486.0479)"
       style="font-variant:normal;font-weight:bold;font-stretch:normal;font-size:163.461px;font-family:'Mont SemiBold';-inkscape-font-specification:Mont-SemiBold;writing-mode:lr-tb;fill:#000000;fill-opacity:1;fill-rule:nonzero;stroke:none"
       id="text12"><tspan
         x="0 170.1628 293.73923 424.67142 553.15167 652.20898 701.57416 816.16028 915.21759 1038.7941 1116.6014 1217.6202"
         y="0"
         sodipodi:role="line"
         id="tspan10">WANDE REALTY</tspan></text>
    <text
       xml:space="preserve"
       transform="matrix(1,0,0,-1,1048.8174,1430.6816)"
       style="font-variant:normal;font-weight:600;font-stretch:normal;font-size:53.0699px;font-family:Mont;-inkscape-font-specification:Mont-Regular;writing-mode:lr-tb;fill:#000000;fill-opacity:1;fill-rule:nonzero;stroke:none"
       id="text16"><tspan
         x="0 36.883579 68.884727 103.8578 150.50624 192.90909 234.46281 251.02063 286.04675 322.87726 369.52573 404.55185 436.55301 472.79443 504.9548 522.41479 554.41595 588.75214 604.2486 661.40485 693.40601 709.96381 746.84741 787.92352 805.38348 835.2088 876.76251 893.32031 930.15082 962.15198 991.97723 1028.1709 1060.3313 1077.7913 1124.4397 1166.8425 1201.1788 1242.5203 1259.9802 1295.0063"
         y="0"
         sodipodi:role="line"
         id="tspan14">BEYOND PROPERTIES WE BUILD RELATIONSHIPS</tspan></text>
    <g
       id="g18">
      <g
         id="g20">
        <g
           id="g26">
          <g
             id="g28">
            <path
               d="m 813.93,1468.142 -15.303,-14.86 c -5.056,-5 -10.157,-9.954 -15.169,-15 v 0 c -5.042,-5.015 -10.039,-10.077 -15.022,-15.152 v 0 c -4.926,-5.137 -9.931,-10.188 -14.785,-15.399 v 0 c 5.39,4.653 10.627,9.466 15.945,14.193 v 0 c 5.261,4.788 10.508,9.59 15.71,14.439 v 0 c 5.231,4.818 10.375,9.728 15.563,14.591 v 0 l 14.2,13.559 13.68,-14.083 c 4.998,-5.057 9.956,-10.155 15,-15.168 v 0 c 5.015,-5.042 10.077,-10.039 15.152,-15.022 v 0 c 5.135,-4.927 10.187,-9.934 15.395,-14.789 v 0 c -4.655,5.388 -9.467,10.625 -14.197,15.942 v 0 c -4.788,5.261 -9.589,10.508 -14.438,15.709 v 0 c -4.819,5.232 -9.726,10.378 -14.591,15.564 v 0 l -14.728,15.43 -1.182,1.239 z"
               style="fill:url(#linearGradient40);stroke:none"
               id="path42" />
          </g>
        </g>
      </g>
    </g>
    <g
       id="g44">
      <g
         id="g46">
        <g
           id="g52">
          <g
             id="g54">
            <path
               d="m 811.873,1526.111 c -9.722,-9.389 -19.428,-18.794 -29.053,-28.283 v 0 c -9.587,-9.53 -19.265,-18.964 -28.746,-28.602 v 0 c -4.75,-4.811 -9.546,-9.572 -14.259,-14.421 v 0 l -14.15,-14.532 c -9.36,-9.766 -18.733,-19.516 -27.86,-29.523 v 0 c 10.345,8.743 20.442,17.741 30.554,26.725 v 0 l 15.056,13.59 c 5.025,4.527 9.964,9.139 14.949,13.704 v 0 c 9.99,9.111 19.784,18.425 29.669,27.645 v 0 c 8.882,8.352 17.698,16.774 26.496,25.213 v 0 l 11.546,-11.936 14.391,-14.713 14.478,-14.63 7.243,-7.31 7.307,-7.25 c 4.879,-4.824 9.718,-9.688 14.633,-14.48 v 0 l 14.746,-14.37 c 9.912,-9.503 19.804,-19.025 29.959,-28.293 v 0 c -8.877,10.499 -18.019,20.743 -27.14,31.007 v 0 l -13.802,15.279 c -4.603,5.093 -9.281,10.111 -13.917,15.17 v 0 l -6.97,7.574 -7.031,7.515 -14.071,15.02 -14.159,14.938 -14.241,14.857 -2.759,2.877 z"
               style="fill:url(#linearGradient66);stroke:none"
               id="path68" />
          </g>
        </g>
      </g>
    </g>
    <g
       id="g70">
      <g
         id="g72">
        <g
           id="g78">
          <g
             id="g80">
            <path
               d="m 812.903,1584.022 -21.971,-21.261 -21.855,-21.384 c -14.522,-14.305 -28.995,-28.661 -43.344,-43.145 v 0 l -10.75,-10.877 c -3.575,-3.633 -7.164,-7.253 -10.707,-10.92 v 0 l -21.31,-21.948 c -14.085,-14.759 -28.201,-29.486 -41.918,-44.627 v 0 c 15.649,13.135 30.899,26.683 46.179,40.201 v 0 l 22.739,20.466 c 3.798,3.401 7.551,6.851 11.316,10.286 v 0 l 11.276,10.331 c 15.016,13.791 29.908,27.712 44.752,41.683 v 0 l 22.194,21.03 17.573,16.837 16.928,-17.482 21.386,-21.851 c 14.302,-14.526 28.669,-28.987 43.147,-43.342 v 0 c 14.459,-14.375 29.099,-28.575 43.745,-42.768 v 0 c 14.754,-14.089 29.482,-28.204 44.616,-41.929 v 0 c -13.143,15.641 -26.692,30.893 -40.213,46.168 v 0 c -13.63,15.173 -27.266,30.339 -41.084,45.33 v 0 c -13.797,15.011 -27.705,29.915 -41.681,44.754 v 0 l -21.027,22.198 -21.146,22.083 -4.337,4.529 z"
               style="fill:url(#linearGradient92);stroke:none"
               id="path94" />
          </g>
        </g>
      </g>
    </g>
    <g
       id="g96">
      <g
         id="g98">
        <g
           id="g104">
          <g
             id="g106">
            <path
               d="m 811.148,1615.433 -25.755,-24.918 -25.614,-25.064 c -17.018,-16.77 -33.984,-33.594 -50.798,-50.577 v 0 c -16.818,-16.977 -33.551,-34.044 -50.114,-51.287 v 0 c -16.502,-17.305 -33.04,-34.573 -49.107,-52.331 v 0 c 18.353,15.384 36.233,31.258 54.15,47.094 v 0 c 17.856,15.9 35.544,31.975 53.144,48.14 v 0 c 17.605,16.161 35.059,32.479 52.46,48.85 v 0 l 26.015,24.65 20.552,19.695 19.729,-20.373 25,-25.535 c 16.714,-16.977 33.513,-33.872 50.437,-50.647 v 0 c 16.933,-16.766 33.95,-33.452 51.144,-49.968 v 0 c 17.251,-16.46 34.471,-32.948 52.17,-48.978 v 0 c -15.35,18.29 -31.176,36.123 -46.974,53.983 v 0 c -15.853,17.805 -31.883,35.442 -47.998,52.995 v 0 c -16.123,17.546 -32.372,34.972 -48.705,52.316 v 0 l -24.572,25.946 -24.712,25.811 -5.124,5.353 z"
               style="fill:url(#linearGradient118);stroke:none"
               id="path120" />
          </g>
        </g>
      </g>
    </g>
    <g
       id="g122">
      <g
         id="g124">
        <g
           id="g130">
          <g
             id="g132">
            <path
               d="m 811.631,1555.886 -18.396,-17.8 -18.3,-17.899 c -12.161,-11.973 -24.282,-23.987 -36.301,-36.107 v 0 c -12.044,-12.096 -23.938,-24.347 -35.83,-36.598 v 0 C 691,1435.137 679.172,1422.818 667.669,1410.161 v 0 c 13.084,11.016 25.84,22.37 38.622,33.699 v 0 c 12.693,11.42 25.385,22.843 37.926,34.421 v 0 c 12.566,11.552 25.03,23.211 37.455,34.911 v 0 l 18.577,17.61 14.797,14.179 14.254,-14.723 17.901,-18.297 c 11.97,-12.164 23.994,-24.275 36.109,-36.3 v 0 c 12.099,-12.041 24.346,-23.938 36.599,-35.829 v 0 c 12.34,-11.807 24.659,-23.635 37.31,-35.144 v 0 c -11.022,13.077 -22.376,25.834 -33.708,38.612 v 0 c -11.421,12.693 -22.847,25.381 -34.422,37.926 v 0 c -11.558,12.561 -23.205,25.035 -34.909,37.456 v 0 l -17.607,18.58 -17.705,18.487 -3.549,3.705 z"
               style="fill:url(#linearGradient144);stroke:none"
               id="path146" />
          </g>
        </g>
      </g>
    </g>
    <g
       id="g148">
      <g
         id="g150">
        <g
           id="g156">
          <g
             id="g158">
            <path
               d="m 812.115,1496.336 -22.023,-21.412 c -7.266,-7.217 -14.606,-14.355 -21.799,-21.647 v 0 c -7.243,-7.24 -14.407,-14.56 -21.555,-21.899 v 0 c -7.105,-7.384 -14.222,-14.754 -21.158,-22.312 v 0 c 7.814,6.647 15.448,13.48 23.095,20.3 v 0 c 7.603,6.866 15.189,13.749 22.697,20.713 v 0 c 7.559,6.911 14.97,13.977 22.456,20.965 v 0 l 20.183,19.246 19.447,-19.99 c 7.212,-7.269 14.356,-14.604 21.647,-21.798 v 0 c 7.238,-7.244 14.56,-14.407 21.898,-21.557 v 0 c 7.382,-7.105 14.752,-14.222 22.306,-21.162 v 0 c -6.649,7.811 -13.483,15.445 -20.305,23.089 v 0 c -6.866,7.603 -13.749,15.191 -20.714,22.697 v 0 c -6.912,7.558 -13.973,14.974 -20.963,22.456 v 0 l -21.193,22.236 -1.971,2.068 z"
               style="fill:url(#linearGradient170);stroke:none"
               id="path172" />
          </g>
        </g>
      </g>
    </g>
  </g>
</svg>
